<?xml version="1.0" encoding="UTF-8"?>
<svg viewBox="0 0 93 27" version="1.1" xmlns="http://www.w3.org/2000/svg" xmlns:xlink="http://www.w3.org/1999/xlink">
    <defs>
        <polygon id="path-1" points="24.6437419 24.3527516 24.6437419 0.172364516 0.232983871 0.172364516 0.232983871 24.3527516 24.6437419 24.3527516"></polygon>
    </defs>
    <g id="00-Vis_Design-V2-Blue-Dark-Theme" stroke="none" stroke-width="1" fill="none" fill-rule="evenodd">
        <g id="01-Frame1" transform="translate(-16.000000, -19.000000)">
            <g id="TNC-logo-white" transform="translate(16.000000, 19.000000)">
                <path d="M81.659671,3.76263871 C81.5833161,4.20596129 81.5531226,5.29525161 82.1900903,5.1561871 C83.0392839,4.97386452 82.9289613,4.88531613 83.3937677,4.48002581 C83.7035419,4.20799355 84.4647677,4.95034839 83.4059613,6.13167097 C82.827929,6.77909032 82.7007677,6.97738065 83.0102516,7.35160645 C83.3322194,7.73976774 84.1709613,7.8884129 84.1709613,9.08425161 C84.1709613,10.1343484 85.518929,9.37312258 85.8452516,8.96347742 C86.1643161,8.56370323 86.3988968,6.73612258 87.3078968,8.06696129 C87.9524129,9.01312258 86.8515097,11.0378323 88.1768323,11.2361226 C89.264671,11.3998645 89.4554129,12.6401226 89.4861871,12.9562839 C89.4899613,13.0009935 89.4922839,13.0291548 89.4922839,13.0291548 C92.2741548,10.3578968 90.4204452,6.90160645 90.3513484,6.48150968 C90.2317355,5.7321871 90.6358645,6.00625161 91.1323161,6.46554194 C89.0811871,2.61876774 85.0332194,5.80645161e-05 80.3729613,5.80645161e-05 C79.5684774,5.80645161e-05 78.7819935,0.0804774194 78.0207677,0.229122581 C80.4223161,0.27963871 82.0995097,1.24031613 81.659671,3.76263871" id="Fill-1" fill="#FFFFFF"></path>
                <path d="M88.0504548,18.4556613 C87.3022935,18.7546935 86.9780032,18.2750806 86.4226161,18.8176935 C85.8114871,19.4134355 87.7636161,20.5834355 84.1711645,19.7641452 C82.5668419,19.3983387 82.7848742,21.1425968 80.9834226,20.2272097 C80.4849387,19.0392097 80.4704226,18.3398226 80.8957452,17.5960161 C81.3930677,16.7253387 81.5713258,17.0182742 81.2691,16.0605 C81.1500677,15.6862742 81.2650355,15.5199194 81.4627452,14.9987903 C81.6587129,14.4779516 81.4064226,13.7559194 80.6730677,13.7971452 C79.6970032,13.8511452 79.8096484,14.2944677 79.2075194,14.6985968 C78.8033903,14.9685968 78.1228742,13.5942097 79.550971,12.3585968 C80.3325194,11.6841774 80.5160032,11.4664355 80.2579065,10.9473387 C79.990229,10.4067581 79.4955194,10.6012742 79.2957774,9.98114516 C79.1419065,9.50414516 79.3808419,8.60675806 78.6948097,8.3925 C77.9161645,8.14920968 77.2957452,9.26201613 76.8469065,9.6975 C76.3231645,10.2046935 75.7518097,11.1119516 75.4701968,10.3887581 C74.9705516,9.10204839 77.2667129,7.18504839 75.8516806,6.67640323 C74.5191,6.19708065 74.0850677,4.79801613 74.0850677,4.79801613 C70.4270032,7.51137097 72.1593581,9.89753226 71.854229,10.3205323 C71.5493903,10.7432419 70.963229,9.80695161 70.469971,10.2552097 C70.0896484,10.6012742 69.7502613,12.8193387 72.0937452,14.2274032 C72.9824226,14.7601452 73.2733258,14.8965968 73.0599387,15.2197258 C72.8895194,15.474629 72.1788097,15.2595 72.1892613,15.845371 C72.2124871,17.0208871 74.0990032,16.6684355 74.4421645,18.140371 C74.7638419,19.5159194 80.6135516,20.3389839 80.6135516,20.3389839 C80.6065839,20.3328871 80.6396806,20.3421774 80.6872935,20.3561129 L80.9651323,20.5105645 C81.052229,20.8734677 81.4000355,21.7046613 82.2138097,22.1230161 C83.5603258,22.8160161 82.1310677,22.4830161 82.3145516,22.9713387 C82.4080355,23.2195645 83.3629065,23.864371 85.0612935,23.4730161 C87.4088419,22.4928871 89.3836161,20.7982742 90.7173581,18.6615 C89.2648742,17.5269194 89.1562935,17.7615 88.0504548,18.4556613" id="Fill-3" fill="#FFFFFF"></path>
                <g id="Group-7" transform="translate(67.935484, 0.056816)">
                    <mask id="mask-2" fill="white">
                        <use xlink:href="#path-1"></use>
                    </mask>
                    <g id="Clip-6"></g>
                    <path d="M12.7516935,20.2992677 C12.7040806,20.2853323 12.6712742,20.2760419 12.6779516,20.2821387 C12.6779516,20.2821387 6.82853226,19.4590742 6.50656452,18.0835258 C6.16369355,16.6115903 4.27717742,16.9640419 4.25366129,15.7885258 C4.24320968,15.2029452 4.95420968,15.4180742 5.12462903,15.1625903 C5.33772581,14.8400419 5.04682258,14.7035903 4.15814516,14.1702677 C1.81437097,12.7627839 2.15404839,10.544429 2.53466129,10.1983645 C3.02762903,9.75010645 3.61379032,10.6863968 3.91862903,10.2636871 C4.22375806,9.84097742 2.49140323,7.45452581 6.14975806,4.74117097 C6.14975806,4.74117097 6.5835,6.14023548 7.91637097,6.61926774 C9.33140323,7.12820323 7.03524194,9.04520323 7.53459677,10.3319129 C7.81620968,11.0548161 8.38785484,10.1478484 8.91130645,9.64094516 C9.36014516,9.20488065 9.98056452,8.09236452 10.7595,8.33565484 C11.4452419,8.5499129 11.2065968,9.4473 11.3601774,9.9243 C11.5602097,10.544429 12.0549194,10.3496226 12.3223065,10.8902032 C12.5804032,11.4095903 12.3969194,11.6273323 11.615371,12.3017516 C10.1872742,13.5370742 10.8680806,14.9117516 11.2719194,14.6417516 C11.8743387,14.2376226 11.7614032,13.7943 12.7374677,13.7403 C13.4711129,13.6990742 13.7234032,14.4211065 13.5271452,14.9419452 C13.3294355,15.4627839 13.2147581,15.629429 13.3335,16.0036548 C13.6357258,16.9611387 13.4577581,16.6684935 12.9604355,17.539171 C12.5348226,18.2826871 12.549629,18.9823645 13.0481129,20.1700742 C14.8495645,21.0857516 14.6315323,19.3414935 16.2355645,19.7073 C19.8280161,20.5265903 17.8758871,19.3565903 18.4870161,18.7608484 C19.0424032,18.2182355 19.3666935,18.6978484 20.1148548,18.3988161 C21.2235968,17.7037839 21.3292742,17.4680419 22.7890161,18.6110419 C23.961629,16.7367194 24.6438871,14.5209774 24.6438871,12.1473 C24.6438871,10.0822355 24.1285645,8.13736452 23.2218871,6.43113871 C22.7135323,5.9579129 22.2940161,5.66294516 22.4159516,6.42475161 C22.4847581,6.84484839 24.3384677,10.3011387 21.5563065,12.9721065 C21.5563065,12.9721065 21.5542742,12.9442355 21.5507903,12.8992355 C21.5197258,12.5830742 21.3292742,11.3431065 20.2414355,11.1793645 C18.9158226,10.9810742 20.0167258,8.95607419 19.3725,8.01020323 C18.4635,6.67907419 18.228629,8.50665484 17.9098548,8.90671935 C17.5835323,9.31636452 16.2355645,10.0775903 16.2355645,9.02720323 C16.2355645,7.83165484 15.3965323,7.68271935 15.0748548,7.29455806 C14.765371,6.92062258 14.8925323,6.72233226 15.4702742,6.0749129 C16.529371,4.89359032 15.7681452,4.15094516 15.4580806,4.42297742 C14.9935645,4.82855806 15.1038871,4.91710645 14.2546935,5.09942903 C13.6174355,5.23820323 13.6479194,4.1489129 13.7242742,3.70588065 C14.1638226,1.18036452 12.4843065,0.220848387 10.0778226,0.172364516 C4.46617742,1.2726871 0.232983871,6.21455806 0.232983871,12.1473 C0.232983871,18.8880097 5.69656452,24.3527516 12.4375645,24.3527516 C14.1011129,24.3527516 15.6871452,24.0180097 17.1326613,23.414429 C15.4305,23.810429 14.4727258,23.1630097 14.3789516,22.9142032 C14.1957581,22.426171 15.6247258,22.759171 14.2782097,22.066171 C13.4644355,21.6478161 13.116629,20.8163323 13.0295323,20.4537194 L12.7516935,20.2992677 Z" id="Fill-5" fill="#47AA34" mask="url(#mask-2)"></path>
                </g>
                <path d="M81.374429,20.7300484 C81.374429,20.7300484 73.3516548,17.6154677 73.0729452,9.72101613 C73.0729452,9.72101613 73.8481065,15.7225645 81.374429,20.7300484" id="Fill-8" fill="#47AA34"></path>
                <path d="M81.3149129,0.0186387097 C81.5436871,0.0438967742 83.2711065,0.273832258 85.0957839,1.43831613 C85.7739774,2.07383226 86.7349452,3.63257419 85.2525581,6.82757419 C85.2525581,6.82757419 87.1515581,4.26373548 86.6719452,2.70760645 C88.2646548,4.30554194 89.6042032,6.83889677 89.6547194,10.8537677 C89.6547194,10.8537677 91.4251065,0.795832258 81.3149129,0.0186387097" id="Fill-10" fill="#47AA34"></path>
                <path d="M89.3336516,19.9687935 C88.7222323,20.3401161 87.7290387,21.2154387 86.1064258,20.7038903 C86.1064258,20.7038903 86.741071,21.1922129 87.7624258,21.1660839 C86.4600387,21.838471 85.047329,21.9993097 82.8118452,21.4398581 C82.8118452,21.4398581 87.3376839,24.1093742 90.4992968,19.0008581 C90.4992968,19.0008581 89.7145548,19.7376968 89.3336516,19.9687935" id="Fill-12" fill="#47AA34"></path>
                <path d="M3.8907871,9.18958065 C3.8907871,10.0695484 4.05830323,10.3128387 4.68307742,10.3128387 L4.68307742,10.530871 L2.09020645,10.530871 L2.09020645,10.3128387 C2.61423871,10.3128387 2.92081935,10.1595484 2.92081935,9.15125806 L2.92081935,3.57241935 L1.86027097,3.57241935 C0.878109677,3.57241935 0.431303226,3.85229032 0.367722581,4.61816129 L0.15056129,4.61816129 L0.15056129,2.94677419 L0.367722581,2.94677419 C0.469625806,3.0356129 0.585464516,3.09919355 0.764012903,3.15029032 C0.929787097,3.19035484 1.15885161,3.21387097 1.46659355,3.21387097 L5.29565806,3.21387097 C5.93349677,3.21387097 6.2270129,3.13751613 6.45723871,2.94677419 L6.68630323,2.94677419 L6.68630323,4.61816129 L6.54694839,4.61816129 C6.40469032,4.00645161 6.16343226,3.57241935 5.00185161,3.57241935 L3.8907871,3.57241935 L3.8907871,9.18958065 Z" id="Fill-14" fill="#FEFEFE"></path>
                <path d="M11.7826548,9.44404839 C11.7826548,10.1344355 11.9098161,10.3129839 12.5093323,10.3129839 L12.5093323,10.5307258 L10.1609129,10.5307258 L10.1609129,10.3129839 C10.7755258,10.3129839 10.9145903,10.1718871 10.9145903,9.58514516 L10.9145903,7.35198387 C10.9145903,6.75072581 10.5574935,6.36808065 10.0093645,6.36808065 C9.49781613,6.36808065 9.12736452,6.6105 8.69333226,7.22366129 L8.69333226,9.70127419 C8.69333226,10.1718871 8.88407419,10.3129839 9.44526774,10.3129839 L9.44526774,10.5307258 L7.02107419,10.5307258 L7.02107419,10.3129839 C7.69723548,10.2999194 7.82642903,10.1718871 7.82642903,9.44404839 L7.82642903,3.5595 C7.82642903,2.97217742 7.6589129,2.88275806 7.02107419,2.88275806 L7.02107419,2.66646774 L8.47646129,2.51230645 L8.69333226,2.51230645 L8.69333226,6.78962903 C9.26759032,6.12508065 9.68942903,5.88382258 10.2750097,5.88382258 C11.0298484,5.88382258 11.7826548,6.38114516 11.7826548,7.45272581 L11.7826548,9.44404839 Z" id="Fill-16" fill="#FEFEFE"></path>
                <path d="M16.3590387,7.55567419 C16.3973613,6.5592871 15.720329,6.15109355 15.146071,6.15109355 C14.3929742,6.15109355 13.9458774,6.71257742 13.8944903,7.55567419 L16.3590387,7.55567419 Z M13.8944903,7.77254516 C13.8703935,9.80219032 15.081329,10.3128677 15.695071,10.3128677 C16.3215871,10.3128677 16.6394903,10.0959968 17.2915548,9.36815806 L17.2915548,9.70115806 C16.7425548,10.4025774 16.2179419,10.6690935 15.4273935,10.6690935 C14.0106194,10.6690935 12.9883935,9.68809355 12.9883935,8.32067419 C12.9883935,6.95644839 13.9844903,5.88370645 15.2601677,5.88370645 C16.3076516,5.88370645 17.2776194,6.72593226 17.2149097,7.77254516 L13.8944903,7.77254516 Z" id="Fill-18" fill="#FEFEFE"></path>
                <path d="M28.9549161,13.2739548 L28.6108839,13.2739548 L20.4351097,3.19656774 L20.3947548,3.19656774 L20.3947548,11.3314065 C20.3947548,12.5051806 20.8604323,12.9296323 21.9128516,12.9296323 L21.9128516,13.2739548 L18.3924,13.2739548 L18.3924,12.9296323 C19.3623677,12.9296323 19.8280452,12.6268258 19.8280452,10.9470194 L19.8280452,4.16827742 C19.8280452,2.87285806 19.4837226,2.14443871 18.1081742,2.02279355 L18.1081742,1.67963226 L21.0822387,1.67963226 L28.3272387,10.703729 L28.3675935,10.703729 L28.3675935,3.9249871 C28.3675935,2.40718065 27.9625935,2.02279355 26.9516903,2.02279355 L26.9516903,1.67963226 L30.4524,1.67963226 L30.4524,2.02279355 C29.3198516,2.02279355 28.9549161,2.48847097 28.9549161,3.84369677 L28.9549161,13.2739548 Z" id="Fill-20" fill="#FEFEFE"></path>
                <path d="M39.6526065,6.0903 L42.1415419,6.0903 L42.1415419,6.61607419 L39.6526065,6.61607419 L39.6526065,11.2304613 C39.6526065,12.2219129 40.1586387,12.7276548 40.9480258,12.7276548 C41.474671,12.7276548 41.8590581,12.5247194 42.2835097,12.0393 L42.5061871,12.3023323 C41.8785097,13.0917194 41.1509613,13.4955581 40.3409613,13.4955581 C39.1271226,13.4955581 38.2767677,12.6463645 38.2767677,11.4119129 L38.2767677,6.61607419 L36.9215419,6.61607419 L36.9215419,6.27262258 C37.8923806,5.78720323 38.7015097,4.91652581 39.3094452,3.68207419 L39.6526065,3.68207419 L39.6526065,6.0903 Z" id="Fill-22" fill="#FEFEFE"></path>
                <path d="M50.2994323,11.9177419 C50.2994323,12.707129 50.5621742,12.9298065 51.5333032,12.9298065 L51.5333032,13.2738387 L48.9235935,13.4152258 L48.9235935,12.1000645 L48.883529,12.1000645 C48.1745613,13.0308387 47.3451097,13.4959355 46.3736903,13.4959355 C44.9566258,13.4959355 44.0270129,12.4237742 44.0270129,11.0882903 L44.0270129,7.42558065 C44.0270129,6.73751613 43.7840129,6.47477419 42.7510452,6.47477419 L42.7510452,6.13045161 L45.0588194,5.90777419 L45.4028516,5.90777419 L45.4028516,11.0273226 C45.4028516,12.0393871 46.0499806,12.6464516 47.0219806,12.6464516 C47.7085935,12.6464516 48.336271,12.2620645 48.9235935,11.4726774 L48.9235935,7.60790323 C48.9235935,6.61587097 48.7607226,6.4953871 47.5271419,6.47477419 L47.5271419,6.13045161 L49.9551097,5.90777419 L50.2994323,5.90777419 L50.2994323,11.9177419 Z" id="Fill-24" fill="#FEFEFE"></path>
                <path d="M54.7455774,11.9177419 C54.7455774,12.707129 54.9879968,12.9298065 55.9390935,12.9298065 L55.9390935,13.2738387 L52.155029,13.2738387 L52.155029,12.9298065 C53.2483839,12.9298065 53.370029,12.6464516 53.370029,11.5539677 L53.370029,7.64825806 C53.370029,6.59612903 53.1064161,6.47477419 51.8922871,6.47477419 L51.8922871,6.13045161 L54.4015452,5.90777419 L54.7455774,5.90777419 L54.7455774,7.46593548 C56.0816419,6.31277419 56.7078677,5.90777419 57.1944484,5.90777419 C57.5991581,5.90777419 58.1455452,6.15106452 58.5101903,6.47477419 L57.9632226,7.74929032 C57.376771,7.42558065 56.7482226,7.12219355 56.2636742,7.12219355 C55.7979968,7.12219355 55.3929968,7.36490323 54.7455774,7.99229032 L54.7455774,11.9177419 Z" id="Fill-26" fill="#FEFEFE"></path>
                <path d="M63.963871,8.55917419 C64.0245484,6.98069032 62.9520968,6.3324 62.0407742,6.3324 C60.8478387,6.3324 60.1385806,7.22369032 60.0581613,8.55917419 L63.963871,8.55917419 Z M60.0581613,8.90349677 C60.0178065,12.1208516 61.9397419,12.9296903 62.9117419,12.9296903 C63.9029032,12.9296903 64.4080645,12.5856581 65.4407419,11.4324968 L65.4407419,11.9588516 C64.5709355,13.0719484 63.7403226,13.495529 62.486129,13.495529 C60.2396129,13.495529 58.6204839,11.9382387 58.6204839,9.77330323 C58.6204839,7.60807742 60.1992581,5.90794839 62.2233871,5.90794839 C63.8825806,5.90794839 65.4204194,7.24314194 65.3190968,8.90349677 L60.0581613,8.90349677 Z" id="Fill-28" fill="#FEFEFE"></path>
                <path d="M7.36258065,16.1172 C6.939,14.4815226 6.04480645,13.7687806 4.54558065,13.7687806 C2.45409677,13.7687806 1.33287097,15.450329 1.33287097,17.6782645 C1.33287097,20.2830387 2.68141935,21.9944903 4.63529032,21.9944903 C5.99893548,21.9944903 7.01477419,21.3583935 7.66654839,20.0856194 L7.893,20.2978452 C7.31758065,21.6765871 5.93912903,22.5397161 4.2723871,22.5397161 C2.18206452,22.5397161 0,21.1153935 0,18.2226194 C0,15.4662968 1.89406452,13.4357806 4.4846129,13.4357806 C5.57535484,13.4357806 6.39377419,13.7995548 6.90793548,13.7995548 C7.13612903,13.7995548 7.28680645,13.7078129 7.3773871,13.5263613 L7.62067742,13.5263613 L7.62067742,16.1172 L7.36258065,16.1172 Z" id="Fill-30" fill="#FEFEFE"></path>
                <path d="M11.3730968,17.1168968 C10.2376452,17.1168968 9.55480645,18.1167677 9.55480645,19.6612839 C9.55480645,21.0406065 10.1310968,22.1917355 11.3730968,22.1917355 C12.645,22.1917355 13.1913871,20.9648323 13.1913871,19.6612839 C13.1913871,18.3130258 12.6159677,17.1168968 11.3730968,17.1168968 M11.3730968,22.4948323 C9.69154839,22.4948323 8.43445161,21.2830258 8.43445161,19.6612839 C8.43445161,18.0261871 9.69154839,16.8138 11.3730968,16.8138 C13.0546452,16.8138 14.3117419,18.0261871 14.3117419,19.6612839 C14.3117419,21.2830258 13.0546452,22.4948323 11.3730968,22.4948323" id="Fill-32" fill="#FEFEFE"></path>
                <path d="M20.5359677,21.1621355 C20.5359677,21.8577484 20.6875161,22.0702645 21.4449677,22.0702645 L21.4449677,22.3283613 L18.5820968,22.3283613 L18.5820968,22.0702645 C19.3087742,22.0702645 19.5061935,21.9039097 19.5061935,21.4045548 L19.5061935,18.6014903 C19.5061935,17.7389419 18.8843226,17.3751677 18.3089032,17.3751677 C17.7787742,17.3751677 17.3093226,17.7081677 16.7789032,18.4200387 L16.7789032,21.0404903 C16.7789032,21.8577484 16.8845806,22.0702645 17.6879032,22.0702645 L17.6879032,22.3283613 L14.8549355,22.3283613 L14.8549355,22.0702645 C15.5668065,22.0702645 15.7482581,22.0095871 15.7482581,21.0404903 L15.7482581,18.026071 C15.7482581,17.3751677 15.5819032,17.2387161 14.8549355,17.2387161 L14.8549355,16.9814903 L16.5208065,16.8136839 L16.7789032,16.8136839 L16.7789032,17.8887484 C17.415,17.1629419 18.036,16.8136839 18.7176774,16.8136839 C19.611,16.8136839 20.5359677,17.4509419 20.5359677,18.7379419 L20.5359677,21.1621355 Z" id="Fill-34" fill="#FEFEFE"></path>
                <path d="M24.9697742,18.4647484 C24.8640968,17.5717161 24.273,17.117071 23.6366129,17.117071 C23.1061935,17.117071 22.7424194,17.4053613 22.7424194,17.8437484 C22.7424194,19.2076839 25.56,18.8436194 25.56,20.843071 C25.56,21.7372645 24.7883226,22.4947161 23.8639355,22.4947161 C23.2725484,22.4947161 22.7583871,22.1001677 22.5,22.1001677 C22.3037419,22.1001677 22.166129,22.2679742 22.1513226,22.4639419 L21.8940968,22.4639419 L21.8940968,20.6308452 L22.1513226,20.6308452 C22.3795161,21.7523613 23.2127419,22.1919097 23.8787419,22.1919097 C24.4094516,22.1919097 24.8182258,21.7973613 24.8182258,21.2669419 C24.8182258,19.7685871 21.969871,20.1764903 21.969871,18.359071 C21.969871,17.5261355 22.7125161,16.8139742 23.6055484,16.8139742 C24.1673226,16.8139742 24.3336774,17.072071 24.6977419,17.072071 C24.8333226,17.072071 24.939,16.9962968 25.0147742,16.8139742 L25.272871,16.8139742 L25.272871,18.4647484 L24.9697742,18.4647484 Z" id="Fill-36" fill="#FEFEFE"></path>
                <path d="M30.1315065,18.7976032 C30.1765065,17.616571 29.3740548,17.1331839 28.6920871,17.1331839 C27.7978935,17.1331839 27.2686355,17.7991839 27.2067968,18.7976032 L30.1315065,18.7976032 Z M27.2067968,19.0559903 C27.1768935,21.4645065 28.6163129,22.0701194 29.3429903,22.0701194 C30.0856355,22.0701194 30.4645065,21.8131839 31.2370548,20.9497645 L31.2370548,21.3428613 C30.5852806,22.1760871 29.9639903,22.4948613 29.0250871,22.4948613 C27.3435387,22.4948613 26.1314419,21.3286355 26.1314419,19.7071839 C26.1314419,18.0863129 27.3124742,16.813829 28.8276677,16.813829 C30.0696677,16.813829 31.2219581,17.814571 31.1464742,19.0559903 L27.2067968,19.0559903 Z" id="Fill-38" fill="#FEFEFE"></path>
                <path d="M33.8157,21.3135387 C33.8157,21.9037645 33.9971516,22.0701194 34.7096032,22.0701194 L34.7096032,22.3282161 L31.8769258,22.3282161 L31.8769258,22.0701194 C32.6941839,22.0701194 32.7850548,21.8578935 32.7850548,21.0406355 L32.7850548,18.1167968 C32.7850548,17.3291516 32.5876355,17.238571 31.6795065,17.238571 L31.6795065,16.9813452 L33.5576032,16.813829 L33.8157,16.813829 L33.8157,17.9806355 C34.815571,17.1169258 35.2850226,16.813829 35.6487968,16.813829 C35.9518935,16.813829 36.3606677,16.9961516 36.633571,17.238571 L36.2239258,18.1917 C35.7843774,17.9501516 35.3149258,17.7234097 34.9511516,17.7234097 C34.6030548,17.7234097 34.2999581,17.9048613 33.8157,18.3740226 L33.8157,21.3135387 Z" id="Fill-40" fill="#FEFEFE"></path>
                <path d="M40.2083129,21.0246387 L41.2537645,18.3133161 C41.5121516,17.6165419 41.5121516,17.2995097 40.7236355,17.2385419 L40.7236355,16.9813161 L42.6931839,16.9813161 L42.6931839,17.2385419 C42.0721839,17.2995097 41.9206355,17.4350903 41.6625387,18.0102194 L39.9351194,22.4489613 L39.6787645,22.4489613 L37.9664419,18.2375419 C37.6026677,17.3601871 37.4659258,17.2684452 36.8301194,17.2385419 L36.8301194,16.9813161 L39.4206677,16.9813161 L39.4206677,17.2385419 C38.9053452,17.2844129 38.7697645,17.5715419 39.0118935,18.1617677 L40.2083129,21.0246387 Z" id="Fill-42" fill="#FEFEFE"></path>
                <path d="M53.3858226,21.1621355 C53.3858226,21.8577484 53.5379516,22.0702645 54.2951129,22.0702645 L54.2951129,22.3283613 L51.4322419,22.3283613 L51.4322419,22.0702645 C52.1595,22.0702645 52.3560484,21.9039097 52.3560484,21.4045548 L52.3560484,18.6014903 C52.3560484,17.7389419 51.7341774,17.3751677 51.1590484,17.3751677 C50.628629,17.3751677 50.1600484,17.7081677 49.6290484,18.4200387 L49.6290484,21.0404903 C49.6290484,21.8577484 49.7355968,22.0702645 50.538629,22.0702645 L50.538629,22.3283613 L47.7050806,22.3283613 L47.7050806,22.0702645 C48.4178226,22.0702645 48.5992742,22.0095871 48.5992742,21.0404903 L48.5992742,18.026071 C48.5992742,17.3751677 48.4317581,17.2387161 47.7050806,17.2387161 L47.7050806,16.9814903 L49.3718226,16.8136839 L49.6290484,16.8136839 L49.6290484,17.8887484 C50.2657258,17.1629419 50.8867258,16.8136839 51.5675323,16.8136839 C52.4625968,16.8136839 53.3858226,17.4509419 53.3858226,18.7379419 L53.3858226,21.1621355 Z" id="Fill-44" fill="#FEFEFE"></path>
                <path d="M59.3482065,18.7071387 L59.0901097,18.7071387 C58.8616258,17.7392032 58.1808194,17.1167516 57.2866258,17.1167516 C56.2272387,17.1167516 55.4843032,18.0260419 55.4843032,19.3429452 C55.4843032,20.8125581 56.4086903,22.0403323 57.4994323,22.0403323 C58.1512065,22.0403323 58.9388516,21.6922355 59.4988839,20.9188161 L59.4988839,21.3136548 C58.9237548,22.100429 58.1053355,22.4949774 57.136529,22.4949774 C55.5444,22.4949774 54.4391419,21.3882677 54.4391419,19.7824935 C54.4391419,18.1320097 55.6820129,16.8139452 57.2114323,16.8139452 C58.0144645,16.8139452 58.4534323,17.1167516 58.7260452,17.1167516 C58.8616258,17.1167516 58.999529,17.0110742 59.0901097,16.8139452 L59.3482065,16.8139452 L59.3482065,18.7071387 Z" id="Fill-46" fill="#FEFEFE"></path>
                <path d="M63.1961129,21.0855774 L64.1358871,18.2523194 C64.3475323,17.6165129 64.3025323,17.2687065 63.7120161,17.2388032 L63.7120161,16.9812871 L65.6055,16.9812871 L65.6055,17.2388032 C65.0289194,17.2388032 64.6814032,17.6025774 64.3780161,18.4956097 L62.2421129,24.8127387 C61.817371,26.0544484 61.1205968,26.7663194 60.4685323,26.7663194 C60.242371,26.7663194 60.0760161,26.7062226 59.8028226,26.5398677 L60.1517903,25.615771 C60.3631452,25.7066419 60.4833387,25.7368355 60.6662419,25.7368355 C61.3168548,25.7368355 61.6968871,25.3579645 62.0295968,24.4184806 L62.7275323,22.4791258 L60.8035645,18.0412548 C60.530371,17.4202548 60.3332419,17.2536097 59.7122419,17.2388032 L59.7122419,16.9812871 L62.2871129,16.9812871 L62.2871129,17.2388032 C61.8783387,17.2994806 61.7116935,17.6025774 61.9088226,18.055771 L63.1961129,21.0855774 Z" id="Fill-48" fill="#FEFEFE"></path>
                <path d="M34.5629032,11.8167968 C34.2795484,12.4238613 33.5104839,12.727829 33.0860323,12.727829 C32.4987097,12.727829 31.9926774,12.1405065 31.9926774,11.4117968 C31.9926774,9.95466774 33.2065161,9.97615161 34.5629032,9.38882903 L34.5629032,11.8167968 Z M35.9358387,11.7131516 L35.9384516,8.53876452 C35.9384516,6.59621613 34.5431613,5.90786129 33.3479032,5.90786129 C32.0533548,5.90786129 31.0012258,6.77882903 30.6972581,8.11402258 L31.0621935,8.21505484 C31.365871,7.18295806 32.1543871,6.67779677 32.9643871,6.67779677 C33.9755806,6.67779677 34.5629032,7.40592581 34.5629032,8.41799032 L34.5629032,8.94260323 C33.39,9.63211935 30.5962258,9.55053871 30.5962258,11.5941194 C30.5962258,12.6465387 31.527,13.4957323 32.6398065,13.4957323 C33.39,13.4957323 33.939,13.2001839 34.6479677,12.4314097 L34.6517419,12.4285065 L34.6517419,13.2907645 L37.1656452,13.2907645 L37.1656452,12.9420871 C36.1416774,12.9420871 35.9358387,12.6549581 35.9358387,11.7131516 L35.9358387,11.7131516 Z" id="Fill-50" fill="#FEFEFE"></path>
                <path d="M45.5787,21.2313194 C45.3690871,21.681029 44.7986032,21.9066097 44.4833129,21.9066097 C44.0484097,21.9066097 43.6733129,21.4717065 43.6733129,20.9311258 C43.6733129,19.8508355 44.5733129,19.8668032 45.5787,19.431029 L45.5787,21.2313194 Z M46.5959903,21.1535129 L46.5988935,18.8004484 C46.5988935,17.361029 45.5636032,16.8503516 44.677829,16.8503516 C43.7183129,16.8503516 42.9382161,17.4957387 42.7129258,18.4863194 L42.9840871,18.5612226 C43.2085065,17.7959323 43.7932161,17.4208355 44.3936032,17.4208355 C45.1437968,17.4208355 45.5787,17.9614161 45.5787,18.7116097 L45.5787,19.1006419 C44.7088935,19.6113194 42.6380226,19.5515129 42.6380226,21.0669968 C42.6380226,21.8468032 43.3284097,22.4762226 44.1532161,22.4762226 C44.7088935,22.4762226 45.1165065,22.2564484 45.6422806,21.6868355 L45.6448935,21.6848032 L45.6448935,22.3238032 L47.5076032,22.3238032 L47.5076032,22.0645452 C46.7487,22.0645452 46.5959903,21.8523194 46.5959903,21.1535129 L46.5959903,21.1535129 Z" id="Fill-52" fill="#FEFEFE"></path>
            </g>
        </g>
    </g>
</svg>